<svg width="506" height="124" viewBox="0 0 506 124" fill="none" xmlns="http://www.w3.org/2000/svg">
<path d="M496.26 2H9.74009C5.46536 2 2 5.91751 2 10.75V113.25C2 118.082 5.46536 122 9.74009 122H496.26C500.535 122 504 118.082 504 113.25V10.75C504 5.91751 500.535 2 496.26 2Z" fill="white" stroke="url(#paint0_linear_448_86)" stroke-width="3"/>
<path d="M131.111 25C122.39 25 112.884 29.5495 102.836 38.5111C98.0694 42.7573 93.9525 47.3071 90.8652 50.9467C90.8652 50.9467 90.8652 50.9467 90.8922 50.9743V50.9467C90.8922 50.9467 95.7672 56.3512 101.157 62.1415C104.055 58.6399 108.226 53.8696 113.019 49.5682C121.957 41.5993 127.78 39.9172 131.111 39.9172C143.651 39.9172 153.834 50.0368 153.834 62.4724C153.834 74.8255 143.624 84.9448 131.111 85.0276C130.542 85.0276 129.811 84.9448 128.89 84.7519C132.546 86.3512 136.473 87.5092 140.211 87.5092C163.178 87.5092 167.673 72.2611 167.971 71.1583C168.648 68.3731 169.001 65.4505 169.001 62.4448C169.001 41.8198 151.992 25 131.111 25Z" fill="url(#paint1_linear_448_86)"/>
<path d="M50.8894 99.9997C59.6104 99.9997 69.1165 95.4502 79.1644 86.4886C83.9311 82.2424 88.0477 77.6926 91.1353 74.053C91.1353 74.053 91.1353 74.053 91.1083 74.0254V74.053C91.1083 74.053 86.2333 68.6485 80.8435 62.8582C77.9458 66.3601 73.7749 71.1301 68.9812 75.4318C60.0436 83.4004 54.2209 85.0825 50.8894 85.0825C38.35 85.0549 28.1665 74.9353 28.1665 62.4997C28.1665 50.1466 38.377 40.0273 50.8894 39.9445C51.4582 39.9445 52.1896 40.0273 53.1103 40.2202C49.4542 38.6209 45.5269 37.4629 41.7895 37.4629C18.823 37.4629 14.3542 52.711 14.0293 53.7865C13.3522 56.599 13 59.4943 13 62.4997C13 83.1799 30.0082 99.9997 50.8894 99.9997Z" fill="url(#paint2_linear_448_86)"/>
<path d="M140.156 87.1783C128.402 86.875 116.187 77.4448 113.696 75.1012C107.25 69.0349 92.3812 52.6288 91.2166 51.3328C80.329 38.8972 65.5687 25 50.8894 25H50.8624H50.8354C33.0145 25.0828 18.0376 37.3804 14.0293 53.7868C14.3272 52.7113 20.2042 37.1599 41.7625 37.7113C53.5165 38.0146 65.7853 47.5828 68.3041 49.9264C74.7499 55.9927 89.6188 72.3991 90.7831 73.6948C101.671 86.1031 116.431 100 131.11 100H131.137H131.164C148.985 99.9175 163.989 87.6196 167.971 71.2132C167.645 72.2887 161.741 87.7024 140.156 87.1783Z" fill="#29ABE2"/>
<path d="M220.953 56.024V34.64H218.511C217.983 36.95 215.97 38.699 213 38.831V40.415H218.247V56.024H220.953ZM233.519 54.044C231.935 54.044 230.78 53.45 229.922 52.526C228.503 51.041 227.909 48.566 227.909 45.332C227.909 42.098 228.503 39.623 229.922 38.138C230.78 37.214 231.935 36.62 233.519 36.62C235.103 36.62 236.258 37.214 237.116 38.138C238.535 39.623 239.129 42.098 239.129 45.332C239.129 48.566 238.535 51.041 237.116 52.526C236.258 53.45 235.103 54.044 233.519 54.044ZM233.519 56.486C236.423 56.486 238.502 55.199 239.855 53.219C241.34 51.074 241.835 48.236 241.835 45.332C241.835 42.428 241.34 39.59 239.855 37.445C238.502 35.465 236.423 34.178 233.519 34.178C230.615 34.178 228.536 35.465 227.183 37.445C225.698 39.59 225.203 42.428 225.203 45.332C225.203 48.236 225.698 51.074 227.183 53.219C228.536 55.199 230.615 56.486 233.519 56.486ZM253.725 54.044C252.141 54.044 250.986 53.45 250.128 52.526C248.709 51.041 248.115 48.566 248.115 45.332C248.115 42.098 248.709 39.623 250.128 38.138C250.986 37.214 252.141 36.62 253.725 36.62C255.309 36.62 256.464 37.214 257.322 38.138C258.741 39.623 259.335 42.098 259.335 45.332C259.335 48.566 258.741 51.041 257.322 52.526C256.464 53.45 255.309 54.044 253.725 54.044ZM253.725 56.486C256.629 56.486 258.708 55.199 260.061 53.219C261.546 51.074 262.041 48.236 262.041 45.332C262.041 42.428 261.546 39.59 260.061 37.445C258.708 35.465 256.629 34.178 253.725 34.178C250.821 34.178 248.742 35.465 247.389 37.445C245.904 39.59 245.409 42.428 245.409 45.332C245.409 48.236 245.904 51.074 247.389 53.219C248.742 55.199 250.821 56.486 253.725 56.486ZM267.232 39.458C267.232 37.775 268.486 36.521 270.07 36.521C271.72 36.521 272.941 37.775 272.941 39.458C272.941 41.141 271.72 42.395 270.07 42.395C268.486 42.395 267.232 41.141 267.232 39.458ZM264.922 39.458C264.922 42.329 267.265 44.606 270.07 44.606C272.908 44.606 275.284 42.329 275.284 39.458C275.284 36.587 272.908 34.31 270.07 34.31C267.265 34.31 264.922 36.587 264.922 39.458ZM280.3 51.041C280.3 49.358 281.554 48.104 283.138 48.104C284.788 48.104 286.009 49.358 286.009 51.041C286.009 52.724 284.788 53.978 283.138 53.978C281.554 53.978 280.3 52.724 280.3 51.041ZM277.99 51.041C277.99 53.912 280.333 56.189 283.138 56.189C285.976 56.189 288.353 53.912 288.353 51.041C288.353 48.17 285.976 45.893 283.138 45.893C280.333 45.893 277.99 48.17 277.99 51.041ZM270.169 56.024L285.58 34.64H283.039L267.562 56.024H270.169ZM307.269 39.755C302.715 39.755 299.349 43.253 299.349 48.104C299.349 52.988 302.715 56.486 307.269 56.486C311.823 56.486 315.189 52.988 315.189 48.104C315.189 43.253 311.823 39.755 307.269 39.755ZM307.269 42.131C310.107 42.131 312.549 44.276 312.549 48.104C312.549 51.965 310.107 54.11 307.269 54.11C304.431 54.11 301.989 51.965 301.989 48.104C301.989 44.276 304.431 42.131 307.269 42.131ZM321.9 46.718C321.9 44.243 323.319 42.131 325.86 42.131C328.731 42.131 329.787 43.979 329.787 46.289V56.024H332.427V45.893C332.427 42.461 330.579 39.755 326.784 39.755C324.705 39.755 322.857 40.745 321.834 42.593V40.217H319.26V56.024H321.9V46.718ZM345.852 47.708V45.398H337.041V47.708H345.852ZM357.411 42.131C360.249 42.131 361.536 44.078 361.965 45.761L364.341 44.738C363.681 42.23 361.47 39.755 357.411 39.755C352.956 39.755 349.59 43.187 349.59 48.104C349.59 52.922 352.89 56.486 357.444 56.486C361.503 56.486 363.714 53.912 364.473 51.569L362.163 50.546C361.701 51.998 360.447 54.11 357.444 54.11C354.639 54.11 352.23 51.899 352.23 48.104C352.23 44.276 354.639 42.131 357.411 42.131ZM370.884 46.586C370.884 44.144 372.336 42.131 374.844 42.131C377.715 42.131 378.771 43.979 378.771 46.289V56.024H381.411V45.893C381.411 42.461 379.563 39.755 375.768 39.755C373.722 39.755 371.907 40.679 370.884 42.329V32.165H368.244V56.024H370.884V46.586ZM385.233 51.833C385.233 54.242 387.18 56.486 390.447 56.486C393.285 56.486 395.001 54.935 395.694 53.648C395.694 54.869 395.826 55.661 395.892 56.024H398.466C398.367 55.529 398.268 54.704 398.268 53.384V45.398C398.268 42.329 396.387 39.755 391.899 39.755C388.5 39.755 385.86 41.801 385.53 44.804L388.038 45.398C388.269 43.385 389.655 41.999 391.965 41.999C394.44 41.999 395.628 43.352 395.628 45.134C395.628 45.827 395.364 46.322 394.209 46.487L389.952 47.114C387.18 47.51 385.233 49.061 385.233 51.833ZM390.777 54.242C388.962 54.242 387.873 52.988 387.873 51.701C387.873 50.15 388.962 49.292 390.48 49.061L395.628 48.302V49.358C395.628 52.724 393.516 54.242 390.777 54.242ZM405.882 56.024V40.217H403.242V56.024H405.882ZM402.582 33.98C402.582 35.069 403.473 35.96 404.562 35.96C405.651 35.96 406.542 35.069 406.542 33.98C406.542 32.891 405.651 32 404.562 32C403.473 32 402.582 32.891 402.582 33.98ZM413.679 46.718C413.679 44.243 415.098 42.131 417.639 42.131C420.51 42.131 421.566 43.979 421.566 46.289V56.024H424.206V45.893C424.206 42.461 422.358 39.755 418.563 39.755C416.484 39.755 414.636 40.745 413.613 42.593V40.217H411.039V56.024H413.679V46.718Z" fill="black"/>
<path d="M185.73 98.3C184.21 98.3 182.82 98.04 181.56 97.52C180.3 97 179.21 96.26 178.29 95.3C177.37 94.32 176.65 93.17 176.13 91.85C175.63 90.51 175.38 89.05 175.38 87.47C175.38 85.95 175.65 84.54 176.19 83.24C176.73 81.94 177.48 80.8 178.44 79.82C179.4 78.84 180.52 78.08 181.8 77.54C183.08 77 184.47 76.73 185.97 76.73C186.99 76.73 187.98 76.88 188.94 77.18C189.9 77.48 190.78 77.9 191.58 78.44C192.38 78.96 193.05 79.57 193.59 80.27L191.1 83C190.58 82.46 190.04 82.01 189.48 81.65C188.94 81.27 188.37 80.99 187.77 80.81C187.19 80.61 186.59 80.51 185.97 80.51C185.05 80.51 184.18 80.68 183.36 81.02C182.56 81.36 181.86 81.84 181.26 82.46C180.68 83.08 180.22 83.82 179.88 84.68C179.54 85.52 179.37 86.46 179.37 87.5C179.37 88.56 179.53 89.52 179.85 90.38C180.19 91.24 180.66 91.98 181.26 92.6C181.88 93.22 182.61 93.7 183.45 94.04C184.31 94.36 185.25 94.52 186.27 94.52C186.93 94.52 187.57 94.43 188.19 94.25C188.81 94.07 189.38 93.82 189.9 93.5C190.44 93.16 190.93 92.77 191.37 92.33L193.29 95.42C192.81 95.96 192.17 96.45 191.37 96.89C190.57 97.33 189.67 97.68 188.67 97.94C187.69 98.18 186.71 98.3 185.73 98.3ZM206.388 98.3C204.888 98.3 203.498 98.03 202.218 97.49C200.938 96.95 199.818 96.2 198.858 95.24C197.918 94.26 197.188 93.11 196.668 91.79C196.148 90.47 195.888 89.03 195.888 87.47C195.888 85.91 196.148 84.47 196.668 83.15C197.188 81.83 197.918 80.69 198.858 79.73C199.818 78.75 200.938 77.99 202.218 77.45C203.498 76.91 204.888 76.64 206.388 76.64C207.908 76.64 209.308 76.91 210.588 77.45C211.868 77.99 212.978 78.75 213.918 79.73C214.858 80.71 215.588 81.86 216.108 83.18C216.628 84.48 216.888 85.91 216.888 87.47C216.888 89.01 216.628 90.44 216.108 91.76C215.588 93.08 214.858 94.23 213.918 95.21C212.978 96.19 211.868 96.95 210.588 97.49C209.308 98.03 207.908 98.3 206.388 98.3ZM206.388 94.58C207.348 94.58 208.218 94.41 208.998 94.07C209.798 93.71 210.488 93.21 211.068 92.57C211.648 91.91 212.098 91.15 212.418 90.29C212.758 89.43 212.928 88.49 212.928 87.47C212.928 86.45 212.758 85.51 212.418 84.65C212.098 83.79 211.648 83.04 211.068 82.4C210.488 81.74 209.798 81.24 208.998 80.9C208.218 80.54 207.348 80.36 206.388 80.36C205.448 80.36 204.578 80.54 203.778 80.9C202.978 81.24 202.288 81.73 201.708 82.37C201.128 83.01 200.678 83.76 200.358 84.62C200.038 85.48 199.878 86.43 199.878 87.47C199.878 88.49 200.038 89.44 200.358 90.32C200.678 91.18 201.128 91.93 201.708 92.57C202.288 93.21 202.978 93.71 203.778 94.07C204.578 94.41 205.448 94.58 206.388 94.58ZM221.117 98V77H224.807L232.457 89.45L230.297 89.42L238.037 77H241.547V98H237.677V90.11C237.677 88.31 237.717 86.69 237.797 85.25C237.897 83.81 238.057 82.38 238.277 80.96L238.757 82.25L232.247 92.3H230.267L223.967 82.34L224.387 80.96C224.607 82.3 224.757 83.68 224.837 85.1C224.937 86.5 224.987 88.17 224.987 90.11V98H221.117ZM247.191 98V77H250.881L258.531 89.45L256.371 89.42L264.111 77H267.621V98H263.751V90.11C263.751 88.31 263.791 86.69 263.871 85.25C263.971 83.81 264.131 82.38 264.351 80.96L264.831 82.25L258.321 92.3H256.341L250.041 82.34L250.461 80.96C250.681 82.3 250.831 83.68 250.911 85.1C251.011 86.5 251.061 88.17 251.061 90.11V98H247.191ZM281.665 98.18C280.005 98.18 278.525 97.83 277.225 97.13C275.925 96.41 274.895 95.43 274.135 94.19C273.395 92.93 273.025 91.51 273.025 89.93V76.97H276.955V89.66C276.955 90.6 277.165 91.44 277.585 92.18C278.025 92.9 278.605 93.48 279.325 93.92C280.045 94.36 280.825 94.58 281.665 94.58C282.585 94.58 283.415 94.36 284.155 93.92C284.895 93.48 285.475 92.9 285.895 92.18C286.335 91.44 286.555 90.6 286.555 89.66V76.97H290.335V89.93C290.335 91.51 289.955 92.93 289.195 94.19C288.455 95.43 287.435 96.41 286.135 97.13C284.835 97.83 283.345 98.18 281.665 98.18ZM295.736 98V77H299.246L311.426 93.41L310.766 93.53C310.686 92.97 310.616 92.4 310.556 91.82C310.496 91.22 310.436 90.6 310.376 89.96C310.336 89.32 310.296 88.65 310.256 87.95C310.236 87.25 310.216 86.52 310.196 85.76C310.176 84.98 310.166 84.16 310.166 83.3V77H314.036V98H310.466L298.226 81.83L299.006 81.62C299.106 82.74 299.186 83.7 299.246 84.5C299.326 85.28 299.386 85.96 299.426 86.54C299.466 87.1 299.496 87.57 299.516 87.95C299.556 88.33 299.576 88.68 299.576 89C299.596 89.3 299.606 89.59 299.606 89.87V98H295.736ZM319.042 98V94.55H322.492V80.45H319.042V77H329.842V80.45H326.392V94.55H329.842V98H319.042ZM339.018 98V80.6H333.018V77H349.098V80.6H342.918V98H339.018ZM358.796 98V87.53L359.006 89L350.516 77H355.076L361.556 86.3L360.146 86.21L365.996 77H370.376L362.246 89.33L362.696 87.29V98H358.796ZM382.133 98V77H385.643L397.823 93.41L397.163 93.53C397.083 92.97 397.013 92.4 396.952 91.82C396.893 91.22 396.833 90.6 396.773 89.96C396.733 89.32 396.693 88.65 396.653 87.95C396.633 87.25 396.613 86.52 396.593 85.76C396.573 84.98 396.563 84.16 396.563 83.3V77H400.433V98H396.863L384.623 81.83L385.403 81.62C385.503 82.74 385.583 83.7 385.643 84.5C385.723 85.28 385.783 85.96 385.823 86.54C385.863 87.1 385.893 87.57 385.913 87.95C385.953 88.33 385.973 88.68 385.973 89C385.993 89.3 386.003 89.59 386.003 89.87V98H382.133ZM415.128 98.3C413.628 98.3 412.238 98.03 410.958 97.49C409.678 96.95 408.558 96.2 407.598 95.24C406.658 94.26 405.928 93.11 405.408 91.79C404.888 90.47 404.628 89.03 404.628 87.47C404.628 85.91 404.888 84.47 405.408 83.15C405.928 81.83 406.658 80.69 407.598 79.73C408.558 78.75 409.678 77.99 410.958 77.45C412.238 76.91 413.628 76.64 415.128 76.64C416.648 76.64 418.048 76.91 419.328 77.45C420.608 77.99 421.718 78.75 422.658 79.73C423.598 80.71 424.328 81.86 424.848 83.18C425.368 84.48 425.628 85.91 425.628 87.47C425.628 89.01 425.368 90.44 424.848 91.76C424.328 93.08 423.598 94.23 422.658 95.21C421.718 96.19 420.608 96.95 419.328 97.49C418.048 98.03 416.648 98.3 415.128 98.3ZM415.128 94.58C416.088 94.58 416.958 94.41 417.738 94.07C418.538 93.71 419.228 93.21 419.808 92.57C420.388 91.91 420.838 91.15 421.158 90.29C421.498 89.43 421.668 88.49 421.668 87.47C421.668 86.45 421.498 85.51 421.158 84.65C420.838 83.79 420.388 83.04 419.808 82.4C419.228 81.74 418.538 81.24 417.738 80.9C416.958 80.54 416.088 80.36 415.128 80.36C414.188 80.36 413.318 80.54 412.518 80.9C411.718 81.24 411.028 81.73 410.448 82.37C409.868 83.01 409.418 83.76 409.098 84.62C408.778 85.48 408.618 86.43 408.618 87.47C408.618 88.49 408.778 89.44 409.098 90.32C409.418 91.18 409.868 91.93 410.448 92.57C411.028 93.21 411.718 93.71 412.518 94.07C413.318 94.41 414.188 94.58 415.128 94.58ZM433.149 98V80.6H427.149V77H443.229V80.6H437.049V98H433.149ZM447.054 98V77H460.794V80.54H450.894V94.46H460.914V98H447.054ZM448.854 89V85.52H459.264V89H448.854ZM472.464 98.3C471.244 98.3 470.124 98.15 469.104 97.85C468.084 97.53 467.164 97.06 466.344 96.44C465.524 95.82 464.794 95.07 464.154 94.19L466.704 91.31C467.684 92.67 468.644 93.61 469.584 94.13C470.524 94.65 471.584 94.91 472.764 94.91C473.444 94.91 474.064 94.81 474.624 94.61C475.184 94.39 475.624 94.1 475.944 93.74C476.264 93.36 476.424 92.93 476.424 92.45C476.424 92.11 476.354 91.8 476.214 91.52C476.094 91.22 475.904 90.96 475.644 90.74C475.384 90.5 475.064 90.28 474.684 90.08C474.304 89.88 473.874 89.71 473.394 89.57C472.914 89.43 472.384 89.3 471.804 89.18C470.704 88.96 469.744 88.67 468.924 88.31C468.104 87.93 467.414 87.47 466.854 86.93C466.294 86.37 465.884 85.75 465.624 85.07C465.364 84.37 465.234 83.58 465.234 82.7C465.234 81.82 465.424 81.01 465.804 80.27C466.204 79.53 466.744 78.89 467.424 78.35C468.104 77.81 468.894 77.39 469.794 77.09C470.694 76.79 471.664 76.64 472.704 76.64C473.884 76.64 474.934 76.78 475.854 77.06C476.794 77.34 477.614 77.76 478.314 78.32C479.034 78.86 479.624 79.52 480.084 80.3L477.504 82.85C477.104 82.23 476.654 81.72 476.154 81.32C475.654 80.9 475.114 80.59 474.534 80.39C473.954 80.17 473.344 80.06 472.704 80.06C471.984 80.06 471.354 80.16 470.814 80.36C470.294 80.56 469.884 80.85 469.584 81.23C469.284 81.59 469.134 82.03 469.134 82.55C469.134 82.95 469.224 83.31 469.404 83.63C469.584 83.93 469.834 84.2 470.154 84.44C470.494 84.68 470.924 84.89 471.444 85.07C471.964 85.25 472.554 85.41 473.214 85.55C474.314 85.77 475.304 86.07 476.184 86.45C477.064 86.81 477.814 87.25 478.434 87.77C479.054 88.27 479.524 88.85 479.844 89.51C480.164 90.15 480.324 90.87 480.324 91.67C480.324 93.05 479.994 94.24 479.334 95.24C478.694 96.22 477.784 96.98 476.604 97.52C475.424 98.04 474.044 98.3 472.464 98.3Z" fill="#161617"/>
<defs>
<linearGradient id="paint0_linear_448_86" x1="75.043" y1="18.7647" x2="115.131" y2="183.768" gradientUnits="userSpaceOnUse">
<stop stop-color="#ED1E79"/>
<stop offset="1" stop-color="#522785"/>
</linearGradient>
<linearGradient id="paint1_linear_448_86" x1="111.387" y1="29.9452" x2="163.86" y2="83.3158" gradientUnits="userSpaceOnUse">
<stop offset="0.21" stop-color="#F15A24"/>
<stop offset="0.6841" stop-color="#FBB03B"/>
</linearGradient>
<linearGradient id="paint2_linear_448_86" x1="70.6132" y1="95.0545" x2="18.1408" y2="41.6842" gradientUnits="userSpaceOnUse">
<stop offset="0.21" stop-color="#ED1E79"/>
<stop offset="0.8929" stop-color="#522785"/>
</linearGradient>
</defs>
</svg>
